<svg width="1200" height="630" viewBox="0 0 1200 630" fill="none" xmlns="http://www.w3.org/2000/svg">
  <rect width="1200" height="630" fill="#101114"/>
  <rect x="34" y="34" width="1132" height="562" rx="28" stroke="#2A2E35" stroke-width="2"/>
  <circle cx="1068" cy="110" r="150" fill="url(#paint0_radial)" fill-opacity="0.9"/>
  <rect x="72" y="84" width="56" height="56" rx="14" fill="#16191E" stroke="#323842"/>
  <path d="M97.6 104.5C97.6 113.888 91.4317 119.2 81.3438 119.2H74V89.8H81.3963C91.1894 89.8 97.6 95.0593 97.6 104.5ZM93.7133 104.5C93.7133 97.0431 88.9276 93.0932 81.0708 93.0932H77.7497V115.907H81.1338C89.1372 115.907 93.7133 111.957 93.7133 104.5ZM104.541 96.9484H107.967V111.82C107.967 115.033 109.329 116.466 111.986 116.466C114.643 116.466 116.005 115.033 116.005 111.82V96.9484H119.431V111.82C119.431 116.955 116.492 119.654 111.986 119.654C107.48 119.654 104.541 116.955 104.541 111.82V96.9484Z" fill="#D39B6A"/>
  <text x="72" y="198" fill="#D39B6A" font-family="'IBM Plex Sans', Arial, sans-serif" font-size="24" font-weight="700" letter-spacing="4">TECHNICAL RESUME</text>
  <text x="72" y="306" fill="#F2EDE5" font-family="'Cormorant Garamond', Georgia, serif" font-size="88" font-weight="600">Bobby Ananta Dioriza</text>
  <text x="72" y="366" fill="#D39B6A" font-family="'IBM Plex Sans', Arial, sans-serif" font-size="30" font-weight="700" letter-spacing="2">Technical Lead / Software Engineer</text>
  <text x="72" y="446" fill="#B8AB9D" font-family="'IBM Plex Sans', Arial, sans-serif" font-size="28">Professional resume, selected work, and engineering journey.</text>
  <rect x="72" y="492" width="282" height="56" rx="28" fill="#17191D" stroke="#323842"/>
  <text x="107" y="528" fill="#F2EDE5" font-family="'IBM Plex Sans', Arial, sans-serif" font-size="24">bobby.dioriza.com</text>
  <defs>
    <radialGradient id="paint0_radial" cx="0" cy="0" r="1" gradientUnits="userSpaceOnUse" gradientTransform="translate(1068 110) rotate(90) scale(150)">
      <stop stop-color="#D39B6A" stop-opacity="0.18"/>
      <stop offset="1" stop-color="#D39B6A" stop-opacity="0"/>
    </radialGradient>
  </defs>
</svg>
